<svg xmlns="http://www.w3.org/2000/svg" width="512.006" height="177.009" viewBox="0 0 135.46825 46.833633"><path d="M38.207 34.372c-.073.183-.989 3.371-3.26 6.67-1.943 2.857-3.995 5.716-7.183 5.752-3.151.074-4.14-1.869-7.732-1.869-3.591 0-4.727 1.796-7.695 1.906-3.078.11-5.423-3.078-7.402-5.936-4.031-5.827-7.11-16.454-2.968-23.636 2.052-3.554 5.716-5.826 9.71-5.863 3.042-.073 5.9 2.052 7.732 2.052 1.832 0 5.314-2.528 8.978-2.162 1.539.074 5.826.623 8.575 4.654-.22.147-5.13 3.005-5.057 8.905.073 7.145 6.23 9.49 6.302 9.527M26.005 7.475C27.654 5.497 28.753 2.748 28.46 0c-2.345.073-5.203 1.576-6.889 3.554-1.502 1.76-2.858 4.58-2.492 7.256 2.602.183 5.277-1.356 6.926-3.335M66.35 25.167h-1.998l-1.094-3.449h-3.805l-1.047 3.449h-1.95l3.782-11.724h2.33zm-3.425-4.875-.999-3.068c-.095-.31-.31-1.047-.594-2.212h-.024c-.12.5-.31 1.237-.547 2.212l-.975 3.068zM74.37 25.167h-1.64l-.095-1.285h-.024c-.594 1-1.474 1.475-2.687 1.475-.832 0-1.498-.262-1.998-.785-.594-.642-.88-1.593-.88-2.877v-4.97h1.879v4.637c0 1.617.547 2.425 1.665 2.425.832 0 1.427-.404 1.736-1.213.071-.214.119-.451.119-.713v-5.16h1.878v6.016c0 .833.024 1.641.048 2.45M80.893 18.127h-2.069v4.09c0 1.047.357 1.57 1.094 1.57.333 0 .618-.023.832-.071l.048 1.427c-.38.142-.856.214-1.45.214-.738 0-1.333-.238-1.737-.666-.404-.452-.618-1.213-.618-2.283v-4.257h-1.237v-1.403h1.237v-1.546l1.855-.547v2.117h2.069v1.355zM89.956 25.167h-1.878v-4.828c0-1.522-.571-2.283-1.689-2.283-.856 0-1.45.452-1.783 1.332-.048.19-.096.404-.096.69v5.112h-1.902V12.848h1.879v5.09h.023c.595-.928 1.427-1.38 2.545-1.38.785 0 1.427.261 1.926.76.642.643.952 1.594.952 2.83v5.019zM99.695 20.862c0 1.308-.38 2.378-1.118 3.21-.785.857-1.807 1.285-3.092 1.285-1.236 0-2.235-.404-2.972-1.237-.737-.832-1.094-1.855-1.094-3.115 0-1.308.38-2.378 1.141-3.21.761-.833 1.784-1.26 3.068-1.26 1.237 0 2.236.403 2.997 1.236.713.808 1.07 1.83 1.07 3.091m-1.95.072c0-.785-.167-1.451-.5-1.998-.404-.666-.951-.999-1.688-.999-.761 0-1.332.333-1.712 1-.333.546-.5 1.236-.5 2.02 0 .785.167 1.451.5 1.998.404.666.975.999 1.712.999.713 0 1.284-.333 1.688-1.023.333-.547.5-1.213.5-1.997M105.683 18.389c-.19-.048-.38-.048-.594-.048-.666 0-1.165.238-1.522.738-.31.451-.476.998-.476 1.664v4.423h-1.878v-5.778c0-.975-.024-1.855-.072-2.664h1.641l.072 1.617h.047c.19-.57.5-.998.928-1.355.428-.31.88-.452 1.355-.452.167 0 .333.024.476.048v1.807zM109.37 14.204c0 .333-.118.618-.332.808-.214.214-.5.31-.856.31-.31 0-.571-.096-.785-.334a1.093 1.093 0 0 1-.333-.808c0-.333.119-.595.333-.809.214-.214.5-.309.808-.309.333 0 .595.095.809.31.238.237.357.522.357.832m-.238 10.963h-1.879v-8.443h1.879zM117.616 25.167h-6.873v-1.094l3.377-4.447c.214-.286.594-.738 1.141-1.38h-4.185v-1.522h6.468v1.166l-3.305 4.375c-.38.476-.761.928-1.142 1.38h4.542v1.522zM126.112 20.553c0 .333-.023.618-.07.856h-5.613c.024.833.285 1.475.808 1.903.476.404 1.094.594 1.831.594a6.39 6.39 0 0 0 2.283-.404l.286 1.308c-.809.357-1.736.523-2.83.523-1.308 0-2.33-.38-3.092-1.165-.737-.761-1.117-1.808-1.117-3.092s.356-2.33 1.046-3.186c.737-.904 1.712-1.356 2.949-1.356 1.213 0 2.14.452 2.758 1.356.5.713.761 1.617.761 2.663m-1.783-.5c0-.546-.12-1.046-.357-1.45-.333-.523-.808-.785-1.498-.785-.618 0-1.118.262-1.498.761-.31.405-.5.904-.547 1.45h3.9zM135.468 25.167h-1.665l-.095-1.356h-.047c-.523 1.023-1.427 1.546-2.711 1.546-1.023 0-1.855-.404-2.545-1.213-.666-.809-.999-1.831-.999-3.115 0-1.38.357-2.473 1.094-3.33.714-.784 1.57-1.189 2.616-1.189 1.142 0 1.926.38 2.378 1.166v-4.852h1.879v10.06c.024.832.048 1.593.095 2.283m-1.95-3.568v-1.403a3.74 3.74 0 0 0-.048-.594 2.151 2.151 0 0 0-.665-1.142c-.357-.309-.761-.451-1.26-.451-.69 0-1.237.285-1.642.832-.404.547-.594 1.26-.594 2.14 0 .833.19 1.522.57 2.045.405.547.952.833 1.641.833.619 0 1.094-.238 1.475-.69.333-.452.523-.975.523-1.57M65.236 45.035h-1.95c-.19-.357-.428-1.284-.76-2.783-.167-.784-.405-1.355-.738-1.664-.333-.31-.808-.476-1.427-.476h-1.165v4.923h-1.879V33.453c.856-.166 1.88-.237 3.044-.237 1.594 0 2.759.309 3.472.95.642.548.975 1.333.975 2.308 0 .713-.214 1.355-.642 1.902-.38.476-.88.833-1.498 1.07v.024c.809.31 1.356 1.07 1.641 2.33.238.976.404 1.642.5 2.022.19.618.309 1.023.427 1.213M62.93 36.64c0-1.332-.785-2.021-2.378-2.021-.595 0-1.047.047-1.356.119v3.971h1.308c.737 0 1.332-.19 1.76-.57.452-.381.666-.88.666-1.499M73.57 40.421c0 .333-.023.619-.07.856h-5.613c.024.833.285 1.475.808 1.903.476.404 1.094.594 1.832.594a6.39 6.39 0 0 0 2.283-.404l.285 1.308c-.809.357-1.736.523-2.83.523-1.308 0-2.33-.38-3.092-1.165-.737-.76-1.117-1.807-1.117-3.091 0-1.285.357-2.331 1.046-3.187.737-.904 1.712-1.356 2.949-1.356 1.213 0 2.14.452 2.759 1.356.523.713.76 1.617.76 2.663m-1.783-.5c0-.546-.119-1.045-.357-1.45-.333-.523-.808-.785-1.498-.785-.618 0-1.118.262-1.498.762-.31.404-.5.903-.547 1.45h3.9zM80.363 42.61c0 .784-.285 1.426-.88 1.902-.57.475-1.38.713-2.402.713-.951 0-1.783-.19-2.45-.57l.405-1.38c.642.38 1.332.547 2.069.547.951 0 1.427-.357 1.427-1.046 0-.31-.095-.571-.31-.761-.213-.214-.57-.405-1.117-.595-1.498-.547-2.26-1.355-2.26-2.426 0-.737.286-1.331.833-1.83.547-.476 1.284-.738 2.212-.738.832 0 1.545.167 2.14.5l-.404 1.355a3.246 3.246 0 0 0-1.713-.5c-.38 0-.69.096-.927.286a.926.926 0 0 0-.333.713c0 .286.119.524.357.714.19.166.57.357 1.141.57 1.475.548 2.212 1.38 2.212 2.545M89.028 40.421c0 .333-.023.619-.071.856h-5.612c.023.833.285 1.475.808 1.903.476.404 1.094.594 1.831.594a6.39 6.39 0 0 0 2.283-.404l.286 1.308c-.809.357-1.736.523-2.83.523-1.308 0-2.33-.38-3.092-1.165-.737-.76-1.118-1.807-1.118-3.091 0-1.285.357-2.331 1.047-3.187.737-.904 1.712-1.356 2.949-1.356 1.213 0 2.14.452 2.758 1.356.5.713.761 1.617.761 2.663m-1.783-.5a2.632 2.632 0 0 0-.357-1.45c-.333-.523-.809-.785-1.498-.785-.619 0-1.118.262-1.498.762-.31.404-.5.903-.547 1.45h3.9zM90.629 32.716h1.879V45.06h-1.88zM94.694 32.716h1.878V45.06h-1.878zM105.634 40.421c0 .333-.024.619-.071.856H99.95c.024.833.286 1.475.809 1.903.475.404 1.094.594 1.83.594a6.39 6.39 0 0 0 2.284-.404l.285 1.308c-.808.357-1.736.523-2.83.523-1.308 0-2.33-.38-3.091-1.165-.737-.76-1.118-1.807-1.118-3.091 0-1.285.357-2.331 1.046-3.187.738-.904 1.713-1.356 2.95-1.356 1.212 0 2.14.452 2.758 1.356.523.713.76 1.617.76 2.663m-1.783-.5a2.632 2.632 0 0 0-.356-1.45c-.333-.523-.809-.785-1.499-.785-.618 0-1.117.262-1.498.762-.309.404-.5.903-.547 1.45h3.9zM111.698 38.257c-.19-.047-.38-.047-.595-.047-.666 0-1.165.237-1.522.737-.309.452-.475.999-.475 1.664v4.424h-1.88v-5.78c0-.974-.023-1.854-.07-2.663h1.64l.072 1.618h.047c.19-.571.5-1 .952-1.356a2.263 2.263 0 0 1 1.83-.404z"/></svg>